<?xml version="1.0" encoding="utf-8"?>
<!-- Generator: Adobe Illustrator 24.1.2, SVG Export Plug-In . SVG Version: 6.00 Build 0)  -->
<svg version="1.1" id="Layer_1" xmlns="http://www.w3.org/2000/svg" xmlns:xlink="http://www.w3.org/1999/xlink" x="0px" y="0px"
	 viewBox="0 0 1920 1080" style="enable-background:new 0 0 1920 1080;" xml:space="preserve">
<style type="text/css">
	.st0{fill:#C99866;}
	.st1{fill:#754624;}
	.st2{fill:#FAE5E3;}
	.st3{fill:#FCDED3;}
	.st4{fill:#AE6D4C;}
	.st5{fill:#FBD7BA;}
	.st6{fill:#A88562;}
	.st7{fill:#F8CCC4;}
	.st8{fill:#8E5D39;}
	.st9{fill:#603E22;}
	.st10{fill:#EEC492;}
	.st11{fill:#AD9272;}
	.st12{fill:#FDF5DC;}
	.st13{fill:#E0BE93;}
</style>
<g>
	<path class="st0" d="M635.52,807.14l44.83,4.09c-0.03-0.21-0.04-0.42-0.04-0.63v-95.26l-42.55,65.22L635.52,807.14z"/>
	<path class="st1" d="M685.09,810.59l41.01-0.01c-0.04-0.18-0.06-0.36-0.08-0.55l-12.26-145.98l-28.69,43.99L685.09,810.59z"/>
	<path class="st2" d="M730.78,809.6l37.19-3.42c-0.04-0.15-0.08-0.3-0.1-0.46l-30.19-178.34l-19.76,30.29L730.78,809.6z"/>
	<polygon class="st3" points="680.3,274.27 677.82,303.8 683.89,312.51 	"/>
	<polygon class="st4" points="686.95,61 609.79,200.2 624.61,222.77 697.03,61 	"/>
	<polygon class="st5" points="576.29,874.78 721.95,981 798.7,981 589.18,855.01 	"/>
	<polygon class="st6" points="556.54,905.06 643.43,981 713.6,981 573.6,878.9 	"/>
	<polygon class="st7" points="591.88,850.88 808.28,981 830.1,981 844.75,955.03 601.13,836.71 	"/>
	<polygon class="st3" points="531.89,942.85 568.52,981 635.99,981 553.83,909.2 	"/>
	<polygon class="st8" points="568.45,61 538.72,91.97 562.88,128.77 617.48,61 	"/>
	<polygon class="st2" points="623.73,61 565.69,133.04 586.33,164.48 655.9,61 	"/>
	<polygon class="st9" points="603.85,832.53 847.19,950.71 864.54,919.96 609.81,823.4 	"/>
	<polygon class="st10" points="661.75,61 589.22,168.88 606.79,195.63 681.42,61 	"/>
	<polygon class="st0" points="1223.65,981 1303.16,803.42 1290.18,783.52 1221.16,981 	"/>
	<polygon class="st2" points="1302.22,981 1366.75,900.9 1345.65,868.55 1270.05,981 	"/>
	<polygon class="st7" points="518.38,61 535.97,87.78 561.68,61 	"/>
	<polygon class="st4" points="1239.01,981 1321.7,831.84 1306.29,808.22 1228.93,981 	"/>
	<polygon class="st7" points="1419,981 1396.85,947.05 1364.25,981 	"/>
	<polygon class="st1" points="1407.53,61 1364.32,61 1389.98,87.73 	"/>
	<polygon class="st1" points="507,981 561.75,981 529.15,947.05 	"/>
	<polygon class="st8" points="1357.48,981 1394.11,942.85 1369.55,905.19 1308.47,981 	"/>
	<polygon class="st11" points="772.5,804.33 805.88,798.2 755.07,600.71 741.54,621.46 	"/>
	<polygon class="st0" points="702.32,61 627.75,227.55 640.06,246.29 704.81,61 	"/>
	<polygon class="st10" points="1264.2,981 1342.77,864.14 1324.69,836.42 1244.54,981 	"/>
	<polygon class="st8" points="925.19,744.31 942.09,731.98 791.43,544.98 791.3,545.17 	"/>
	<polygon class="st4" points="806.29,546.3 904.75,399.85 806.73,521.51 796.27,537.55 	"/>
	<polygon class="st10" points="914.15,380.43 803.69,495.48 811.67,507.63 	"/>
	<polygon class="st6" points="901.67,759.37 921.47,747.47 788.43,549.58 786.77,552.11 	"/>
	<polygon class="st2" points="926.41,360.61 792.17,477.93 800.94,491.29 	"/>
	<polygon class="st4" points="810.35,796.33 840.09,788.03 767.81,581.19 758.62,595.27 	"/>
	<polygon class="st7" points="874.8,773.35 897.72,762.22 783.79,556.69 780.23,562.14 	"/>
	<polygon class="st10" points="844.41,785.83 870.65,775.89 777.1,566.94 771.12,576.1 	"/>
	<polygon class="st1" points="960.41,320.99 765.91,437.95 776.96,454.78 	"/>
	<polygon class="st4" points="1038.49,267.13 713.33,357.87 730.43,383.91 	"/>
	<polygon class="st8" points="941.75,340.69 779.67,458.89 789.45,473.79 	"/>
	<polygon class="st11" points="1153.23,231.52 989.98,231.52 981.3,247.18 	"/>
	<polygon class="st0" points="1200.06,226.53 1002.7,208.55 992.74,226.53 	"/>
	<polygon class="st10" points="1110.71,240.4 978.38,252.45 970.84,266.08 	"/>
	<polygon class="st12" points="1251.23,226.19 1016.78,183.13 1005.34,203.78 	"/>
	<polygon class="st7" points="1008.58,283.77 733.22,388.16 747.83,410.41 	"/>
	<polygon class="st6" points="982.62,301.88 750.57,414.58 763.2,433.82 	"/>
	<polygon class="st5" points="1035.39,572.16 1071.73,468.16 1063,464.84 	"/>
	<polygon class="st10" points="963,329.55 951.19,341.85 1097.93,470.09 	"/>
	<polygon class="st13" points="1019.32,178.53 1296.91,229.51 1297.42,228.73 1032.47,154.79 	"/>
	<polygon class="st3" points="1245.7,767.66 1249.59,721.3 1239.95,706.32 	"/>
	<polygon class="st3" points="1290.1,61 1364.72,126.22 1387.23,91.92 1357.55,61 	"/>
	<polygon class="st9" points="1085.82,474.41 1076.27,469.77 1034.9,588.14 	"/>
	<polygon class="st13" points="1100.51,482.59 1090.21,476.4 1032.54,605.2 	"/>
	<polygon class="st13" points="1034.24,557.38 1058.35,463.63 1050.48,461.43 	"/>
	<polygon class="st5" points="1127.42,61 1328.25,181.77 1341.69,161.3 1204.15,61 	"/>
	<polygon class="st6" points="1212.5,61 1344.39,157.19 1362,130.35 1282.65,61 	"/>
	<polygon class="st5" points="1013.7,634.21 1016.88,625.11 913.84,596.36 	"/>
	<path class="st12" d="M1229.46,917.61l8.58-50.6c-0.09,0.01-0.18,0.01-0.28,0.01c-0.14,0-0.28-0.01-0.42-0.02l-219.02-19.96
		l20.53,35.48L1229.46,917.61z"/>
	<polygon class="st5" points="1260.05,737.33 1253.87,727.85 1246.23,818.8 	"/>
	<path class="st11" d="M1241.08,810.41l-0.01-42.71c-0.17,0.04-0.34,0.07-0.52,0.08l-254.65,23.2l11.28,19.5L1241.08,810.41z"/>
	<path class="st10" d="M1240.13,762.82l-3.28-38.73c-0.15,0.04-0.3,0.08-0.45,0.11l-261.38,48l8.22,14.21L1240.13,762.82z"/>
	<path class="st0" d="M1237.77,862.04l3.92-46.69c-0.2,0.03-0.4,0.05-0.61,0.05h-241.07l15.25,26.36L1237.77,862.04z"/>
	<polygon class="st9" points="1272.58,756.54 1264.04,743.45 1241.13,878.79 	"/>
	<polygon class="st13" points="1286.86,778.43 1276.14,761.99 1230.18,940.61 	"/>
	<path class="st13" d="M1215.4,976.96c0.22,0.05,0.5-0.12,0.56-0.34l13.91-54.05c-0.12,0.01-0.23,0.03-0.35,0.03
		c-0.29,0-0.59-0.03-0.88-0.08l-186.46-34.24l27.83,48.11L1215.4,976.96z"/>
	<polygon class="st4" points="1095.81,981 1211.38,981 1073.56,942.54 	"/>
	<path class="st0" d="M1290.46,234.77l-44.81-4.08c0.03,0.21,0.05,0.43,0.05,0.65v76.18l44.35-67.55l0.44-5.18
		C1290.48,234.78,1290.47,234.77,1290.46,234.77z"/>
	<polygon class="st13" points="825.49,559.34 835.79,565.53 893.46,436.72 	"/>
	<polygon class="st2" points="945.56,728.54 959.8,716.1 809.03,559.07 	"/>
	<polygon class="st9" points="1052.52,118.58 1306.52,214.87 1313.02,204.97 1070.04,86.96 	"/>
	<polygon class="st13" points="891.76,484.55 867.65,578.3 875.52,580.5 	"/>
	<polygon class="st4" points="977.71,696.11 987.33,684.18 846.73,581.64 	"/>
	<polygon class="st0" points="989.92,679.98 997.59,668.58 864.81,588.74 	"/>
	<polygon class="st13" points="999.85,664.18 1005.79,653.46 882.13,593.4 	"/>
	<polygon class="st10" points="963,712.38 974.8,700.08 828.07,571.84 	"/>
	<polygon class="st9" points="840.18,567.52 849.74,572.16 891.1,453.78 	"/>
	<polygon class="st5" points="890.61,469.77 854.27,573.77 863,577.08 	"/>
	<polygon class="st4" points="948.29,345.82 938.67,357.75 1079.27,460.28 	"/>
	<polygon class="st9" points="918.3,393.05 913.84,403 1027.5,446.08 	"/>
	<polygon class="st7" points="1084.41,61 1072.44,82.62 1315.76,200.8 1325.54,185.9 1117.84,61 	"/>
	<polygon class="st0" points="936.08,361.95 928.41,373.35 1061.19,453.19 	"/>
	<polygon class="st13" points="926.15,377.75 920.21,388.47 1043.87,448.53 	"/>
	<polygon class="st13" points="907.95,421.65 905.84,429.85 997.95,446.77 	"/>
	<polygon class="st0" points="897.92,418.71 810.32,549 821.27,556.99 	"/>
	<polygon class="st5" points="912.3,407.72 909.12,416.82 1012.15,445.57 	"/>
	<polygon class="st9" points="1007.7,648.88 1012.16,638.93 898.5,595.85 	"/>
	<polygon class="st4" points="1034.94,150.32 1300.28,224.37 1303.73,219.11 1050.09,122.97 	"/>
	<polygon class="st13" points="619.43,810.64 884.48,884.61 897.41,861.69 	"/>
	<polygon class="st0" points="726.12,815.4 913.87,832.51 923.52,815.4 	"/>
	<polygon class="st12" points="677.04,815.95 900.06,856.99 911.17,837.28 	"/>
	<polygon class="st4" points="615.48,814.7 612.58,819.14 867,915.59 881.96,889.07 	"/>
	<polygon class="st5" points="679.77,223.13 668.5,289.6 673.54,297.29 	"/>
	<path class="st9" d="M630.75,806.71l1.49-17.7l-10.89,16.69l9.4,1.73C630.74,807.19,630.73,806.95,630.75,806.71z"/>
	<polygon class="st11" points="771.11,810.56 926.27,810.51 934.65,795.66 	"/>
	<polygon class="st7" points="917.42,758.16 1203.01,649.89 1187.93,626.78 	"/>
	<polygon class="st2" points="853.51,789.45 947.94,772.11 953.97,761.41 	"/>
	<polygon class="st10" points="811.97,802.14 937.5,790.61 944.75,777.76 	"/>
	<path class="st13" d="M710.6,64.97c-0.03-0.01-0.06-0.01-0.08-0.01c-0.2,0-0.43,0.16-0.48,0.35l-13.9,54.04
		c0.4-0.03,0.82-0.01,1.23,0.06l194.94,35.8l-25.05-46.52L710.6,64.97z"/>
	<path class="st12" d="M696.54,124.32l-8.58,50.6c0.23-0.01,0.46-0.02,0.7,0l225.33,20.53l-18.64-34.63L696.54,124.32z"/>
	<polygon class="st2" points="966.2,325.83 1116.96,482.85 980.44,313.39 	"/>
	<polygon class="st4" points="964.16,753.41 1223.35,681.08 1205.79,654.15 887.52,774.8 957.43,755.29 961.29,748.45 	"/>
	<path class="st10" d="M685.87,279.11l3.28,38.73c0.14-0.04,0.29-0.08,0.44-0.11l264.11-48.5l-7.46-13.85L685.87,279.11z"/>
	<path class="st0" d="M688.23,179.89l-3.92,46.68c0.2-0.03,0.4-0.05,0.61-0.05h245.79l-13.9-25.81L688.23,179.89z"/>
	<polygon class="st6" points="943.37,740.05 1185.21,622.6 1172.1,602.51 	"/>
	<polygon class="st9" points="656.88,271.92 664.49,283.5 684.87,163.15 	"/>
	<polygon class="st13" points="643.38,251.36 653.32,266.49 695.82,101.31 	"/>
	<polygon class="st4" points="841.59,61 714.88,61 863.99,102.61 	"/>
	<path class="st11" d="M684.92,231.52l0.01,42.71c0.17-0.04,0.35-0.07,0.52-0.08l258.22-23.53l-10.28-19.09H684.92z"/>
	<path class="st1" d="M1240.91,231.52h-40.97c0.02,0.13,0.04,0.25,0.05,0.38l10.82,128.78l30.13-45.9L1240.91,231.52z"/>
	<polygon class="st1" points="965.59,720.93 1169.4,598.38 1157.88,580.7 	"/>
	<polygon class="st0" points="1028.07,623.24 1115.68,492.93 1104.73,484.94 	"/>
	<polygon class="st11" points="1153.5,237.6 1120.12,243.73 1167.27,426.99 1181.82,404.83 	"/>
	<polygon class="st4" points="1121.3,497.01 1119.71,495.63 1021.26,642.07 1118.87,520.91 1112.26,510.78 	"/>
	<polygon class="st13" points="1018.05,620.28 1020.16,612.08 928.05,595.16 	"/>
	<polygon class="st2" points="966.73,757.85 972.38,767.62 1235.07,719.38 1230.42,691.91 1226.2,685.44 	"/>
	<polygon class="st2" points="956.18,273.84 690.93,322.55 691.21,324.19 710.46,353.51 1072.49,252.48 967.72,271.72 
		961.29,283.33 	"/>
	<path class="st2" d="M1195.25,232.69l-37.15,3.38c0.01,0.04,0.02,0.08,0.03,0.13v0l27.55,162.74l20.94-31.9L1195.25,232.69z"/>
	<polygon class="st2" points="999.58,681.33 1142.21,556.68 1132.92,542.45 	"/>
	<polygon class="st10" points="1011.85,661.5 1130.18,538.25 1121.67,525.19 	"/>
	<polygon class="st8" points="984.25,701.23 1155.19,576.58 1144.91,560.83 	"/>
	<polygon class="st8" points="1000.81,297.62 983.91,309.95 1127.28,487.9 1128,486.8 	"/>
	<polygon class="st10" points="1081.59,256.1 1055.35,266.04 1143.57,463.09 1150.33,452.8 	"/>
	<polygon class="st4" points="1115.65,245.6 1085.91,253.89 1153.65,447.73 1163.71,432.41 	"/>
	<polygon class="st6" points="1024.33,282.56 1004.53,294.46 1130.89,482.41 1133.18,478.91 	"/>
	<polygon class="st7" points="1051.2,268.58 1028.28,279.71 1136.18,474.35 1140.43,467.87 	"/>
</g>
</svg>
