<svg xmlns="http://www.w3.org/2000/svg" xmlns:xlink="http://www.w3.org/1999/xlink" aria-hidden="true" style="position: absolute; width: 0; height: 0; overflow: hidden;" version="1.1" >
    <symbol id="full" viewBox="95 5 170 150"> 
            <g fill="#ffffff" fill-opacity="1"><g transform="translate(95.165099, 97.895403)"><g><path d="M 25.6875 -34.589844 L 1.167969 -34.589844 L 1.167969 -24.566406 L 2.746094 -24.566406 L 4.222656 -32.300781 L 11.191406 -32.300781 L 11.191406 -2.390625 L 6.917969 -1.425781 L 6.917969 0 L 19.9375 0 L 19.9375 -1.425781 L 15.667969 -2.390625 L 15.667969 -32.300781 L 22.636719 -32.300781 L 24.109375 -24.566406 L 25.6875 -24.566406 Z M 25.6875 -34.589844 "/></g></g></g><g fill="#ffffff" fill-opacity="1"><g transform="translate(124.563562, 97.895403)"><g><path d="M 18.363281 -6.207031 C 16.734375 -3.457031 14.546875 -1.832031 12.105469 -1.832031 C 8.394531 -1.832031 6.257812 -5.59375 6.207031 -11.953125 L 19.582031 -11.953125 C 19.582031 -19.632812 16.988281 -24.414062 11.445312 -24.414062 C 5.492188 -24.414062 2.035156 -19.683594 2.035156 -11.546875 C 2.035156 -3.867188 5.542969 0.710938 11.546875 0.710938 C 14.902344 0.710938 17.90625 -1.628906 19.683594 -5.492188 Z M 11.292969 -22.6875 C 13.988281 -22.6875 15.464844 -19.429688 15.515625 -13.835938 L 6.257812 -13.582031 C 6.511719 -19.328125 8.292969 -22.6875 11.292969 -22.6875 Z M 11.292969 -22.6875 "/></g></g></g><g fill="#ffffff" fill-opacity="1"><g transform="translate(148.825033, 97.895403)"><g><path d="M 17.90625 -2.085938 L 17.90625 -17.292969 C 17.90625 -22.277344 15.054688 -24.414062 10.273438 -24.414062 C 7.933594 -24.414062 5.441406 -23.601562 3.714844 -22.535156 L 3.714844 -16.328125 L 5.289062 -16.328125 L 6.765625 -21.820312 C 7.578125 -22.277344 8.699219 -22.636719 9.714844 -22.636719 C 12.5625 -22.636719 13.9375 -20.703125 13.9375 -16.988281 L 13.9375 -13.53125 L 13.886719 -13.53125 C 5.796875 -13.53125 1.679688 -10.222656 1.679688 -5.238281 C 1.679688 -1.425781 4.019531 0.710938 7.527344 0.710938 C 11.445312 0.710938 13.480469 -3 14.039062 -5.644531 L 14.191406 -5.644531 L 14.496094 0.507812 L 21.160156 -0.609375 L 21.160156 -1.78125 Z M 8.496094 -2.289062 C 6.714844 -2.289062 5.695312 -3.714844 5.695312 -5.902344 C 5.695312 -9.664062 8.292969 -11.953125 13.9375 -12.003906 C 13.785156 -6.5625 11.597656 -2.289062 8.496094 -2.289062 Z M 8.496094 -2.289062 "/></g></g></g><g fill="#ffffff" fill-opacity="1"><g transform="translate(173.442543, 97.895403)"><g><path d="M 33.875 -2.1875 L 33.875 -18.210938 C 33.875 -22.332031 31.996094 -24.414062 28.179688 -24.414062 C 24.210938 -24.414062 21.921875 -20.449219 21.363281 -17.957031 L 21.210938 -17.957031 C 21.058594 -22.074219 19.175781 -24.414062 15.617188 -24.414062 C 11.496094 -24.414062 9.410156 -20.449219 8.851562 -17.957031 L 8.699219 -17.957031 L 8.34375 -24.210938 L 1.273438 -22.992188 L 1.273438 -21.820312 L 4.730469 -21.566406 L 4.730469 -2.136719 L 1.273438 -1.273438 L 1.273438 0 L 11.699219 0 L 11.699219 -1.273438 L 8.699219 -2.136719 L 8.699219 -10.121094 C 8.699219 -16.023438 11.496094 -22.074219 14.445312 -22.074219 C 16.785156 -22.074219 17.34375 -20.042969 17.34375 -16.886719 L 17.34375 0 L 24.566406 0 L 24.566406 -1.273438 L 21.3125 -2.238281 L 21.3125 -10.171875 C 21.3125 -16.074219 24.058594 -22.023438 27.113281 -22.023438 C 29.144531 -22.023438 29.910156 -20.703125 29.910156 -17.753906 L 29.910156 0 L 37.335938 0 L 37.335938 -1.273438 Z M 33.875 -2.1875 "/></g></g></g><g fill="#ffffff" fill-opacity="1"><g transform="translate(214.081366, 97.895403)"><g><path d="M 45.472656 -34.589844 L 34.894531 -34.589844 L 34.894531 -33.214844 L 39.066406 -32.25 L 32.859375 -5.238281 L 32.757812 -5.238281 L 30.976562 -13.886719 L 25.839844 -34.742188 L 21.617188 -34.027344 L 14.699219 -5.238281 L 14.546875 -5.238281 L 12.765625 -14.140625 L 8.34375 -32.351562 L 12.308594 -33.214844 L 12.308594 -34.589844 L 0.457031 -34.589844 L 0.457031 -33.214844 L 3.613281 -32.453125 L 12.257812 0.710938 L 15.617188 0 L 22.585938 -29.246094 L 22.6875 -29.246094 L 30.265625 0.710938 L 33.621094 0 L 42.21875 -32.300781 L 45.472656 -33.214844 Z M 45.472656 -34.589844 "/></g></g></g><g fill="#ffffff" fill-opacity="1"><g transform="translate(262.247667, 97.895403)"><g><path d="M 11.75 0.710938 C 18.007812 0.710938 21.667969 -4.171875 21.667969 -12.207031 C 21.667969 -19.9375 18.058594 -24.414062 11.953125 -24.414062 C 5.695312 -24.414062 2.035156 -19.53125 2.035156 -11.242188 C 2.035156 -3.765625 5.644531 0.710938 11.75 0.710938 Z M 11.953125 -1.117188 C 8.292969 -1.117188 6.257812 -5.035156 6.257812 -11.648438 C 6.257812 -18.769531 8.292969 -22.6875 11.75 -22.6875 C 15.414062 -22.6875 17.496094 -18.71875 17.496094 -11.800781 C 17.496094 -5.035156 15.414062 -1.117188 11.953125 -1.117188 Z M 11.953125 -1.117188 "/></g></g></g><g fill="#ffffff" fill-opacity="1"><g transform="translate(288.543596, 97.895403)"><g><path d="M 14.953125 -24.414062 C 10.886719 -24.414062 9.207031 -19.886719 8.597656 -16.632812 L 8.496094 -16.632812 L 8.1875 -24.210938 L 1.273438 -22.992188 L 1.273438 -21.820312 L 4.730469 -21.566406 L 4.730469 -2.136719 L 1.273438 -1.273438 L 1.273438 0 L 12.410156 0 L 12.410156 -1.273438 L 8.699219 -2.136719 L 8.699219 -8.902344 C 8.699219 -14.394531 11.039062 -22.484375 14.699219 -22.484375 L 14.902344 -22.484375 L 16.226562 -16.328125 L 17.804688 -16.328125 L 17.804688 -23.652344 C 17.039062 -24.109375 16.125 -24.414062 14.953125 -24.414062 Z M 14.953125 -24.414062 "/></g></g></g><g fill="#ffffff" fill-opacity="1"><g transform="translate(309.702533, 97.895403)"><g><path d="M 20.804688 -1.984375 L 13.53125 -15.054688 L 19.429688 -21.71875 L 22.484375 -22.484375 L 22.484375 -23.753906 L 13.988281 -23.753906 L 13.988281 -22.484375 L 16.480469 -21.71875 L 8.546875 -11.800781 L 8.546875 -37.691406 L 1.117188 -36.316406 L 1.117188 -35.148438 L 4.578125 -34.894531 L 4.578125 -2.136719 L 1.117188 -1.273438 L 1.117188 0 L 11.34375 0 L 11.34375 -1.273438 L 8.546875 -2.085938 L 8.546875 -9.308594 L 10.988281 -12.105469 L 13.9375 -6.003906 L 17.34375 0 L 23.703125 0 L 23.703125 -1.273438 Z M 20.804688 -1.984375 "/></g></g></g><g fill="#ffffff" fill-opacity="1"><g transform="translate(336.100184, 97.895403)"><g><path d="M 5.746094 0.710938 C 7.273438 0.710938 8.292969 -0.558594 8.292969 -2.035156 C 8.292969 -3.507812 7.273438 -4.730469 5.746094 -4.730469 C 4.222656 -4.730469 3.203125 -3.507812 3.203125 -2.035156 C 3.203125 -0.558594 4.222656 0.710938 5.746094 0.710938 Z M 5.746094 0.710938 "/></g></g></g><g fill="#ffffff" fill-opacity="1"><g transform="translate(269.304517, 117.583605)"><g><path d="M 2.90625 0.0625 C 2.414062 0.0625 1.972656 -0.046875 1.578125 -0.265625 C 1.191406 -0.484375 0.882812 -0.78125 0.65625 -1.15625 C 0.4375 -1.53125 0.328125 -1.957031 0.328125 -2.4375 C 0.328125 -2.90625 0.4375 -3.328125 0.65625 -3.703125 C 0.882812 -4.085938 1.195312 -4.382812 1.59375 -4.59375 C 1.988281 -4.8125 2.425781 -4.921875 2.90625 -4.921875 C 3.289062 -4.921875 3.640625 -4.859375 3.953125 -4.734375 C 4.265625 -4.609375 4.535156 -4.421875 4.765625 -4.171875 L 4.3125 -3.734375 C 3.945312 -4.109375 3.488281 -4.296875 2.9375 -4.296875 C 2.582031 -4.296875 2.253906 -4.210938 1.953125 -4.046875 C 1.660156 -3.890625 1.429688 -3.671875 1.265625 -3.390625 C 1.109375 -3.109375 1.03125 -2.789062 1.03125 -2.4375 C 1.03125 -2.082031 1.109375 -1.757812 1.265625 -1.46875 C 1.429688 -1.1875 1.660156 -0.960938 1.953125 -0.796875 C 2.253906 -0.640625 2.582031 -0.5625 2.9375 -0.5625 C 3.476562 -0.5625 3.9375 -0.753906 4.3125 -1.140625 L 4.765625 -0.703125 C 4.535156 -0.453125 4.265625 -0.257812 3.953125 -0.125 C 3.640625 0 3.289062 0.0625 2.90625 0.0625 Z M 2.90625 0.0625 "/></g></g></g><g fill="#ffffff" fill-opacity="1"><g transform="translate(277.810508, 117.583605)"><g><path d="M 2.921875 0.0625 C 2.429688 0.0625 1.988281 -0.046875 1.59375 -0.265625 C 1.207031 -0.484375 0.898438 -0.78125 0.671875 -1.15625 C 0.441406 -1.539062 0.328125 -1.96875 0.328125 -2.4375 C 0.328125 -2.90625 0.441406 -3.328125 0.671875 -3.703125 C 0.898438 -4.085938 1.207031 -4.382812 1.59375 -4.59375 C 1.988281 -4.8125 2.429688 -4.921875 2.921875 -4.921875 C 3.410156 -4.921875 3.851562 -4.8125 4.25 -4.59375 C 4.644531 -4.382812 4.953125 -4.085938 5.171875 -3.703125 C 5.390625 -3.328125 5.5 -2.90625 5.5 -2.4375 C 5.5 -1.957031 5.390625 -1.53125 5.171875 -1.15625 C 4.953125 -0.78125 4.644531 -0.484375 4.25 -0.265625 C 3.851562 -0.046875 3.410156 0.0625 2.921875 0.0625 Z M 2.921875 -0.5625 C 3.285156 -0.5625 3.609375 -0.640625 3.890625 -0.796875 C 4.171875 -0.960938 4.394531 -1.1875 4.5625 -1.46875 C 4.726562 -1.757812 4.8125 -2.082031 4.8125 -2.4375 C 4.8125 -2.789062 4.726562 -3.109375 4.5625 -3.390625 C 4.394531 -3.671875 4.171875 -3.890625 3.890625 -4.046875 C 3.609375 -4.210938 3.285156 -4.296875 2.921875 -4.296875 C 2.566406 -4.296875 2.242188 -4.210938 1.953125 -4.046875 C 1.660156 -3.890625 1.429688 -3.671875 1.265625 -3.390625 C 1.109375 -3.109375 1.03125 -2.789062 1.03125 -2.4375 C 1.03125 -2.082031 1.109375 -1.757812 1.265625 -1.46875 C 1.429688 -1.1875 1.660156 -0.960938 1.953125 -0.796875 C 2.242188 -0.640625 2.566406 -0.5625 2.921875 -0.5625 Z M 2.921875 -0.5625 "/></g></g></g><g fill="#ffffff" fill-opacity="1"><g transform="translate(287.130246, 117.583605)"><g><path d="M 0.734375 -4.875 L 1.421875 -4.875 L 1.421875 -0.609375 L 4.0625 -0.609375 L 4.0625 0 L 0.734375 0 Z M 0.734375 -4.875 "/></g></g></g><g fill="#ffffff" fill-opacity="1"><g transform="translate(294.73904, 117.583605)"><g><path d="M 0.734375 -4.875 L 1.421875 -4.875 L 1.421875 -0.609375 L 4.0625 -0.609375 L 4.0625 0 L 0.734375 0 Z M 0.734375 -4.875 "/></g></g></g><g fill="#ffffff" fill-opacity="1"><g transform="translate(302.347835, 117.583605)"><g><path d="M 3.828125 -1.21875 L 1.25 -1.21875 L 0.703125 0 L 0 0 L 2.203125 -4.875 L 2.890625 -4.875 L 5.09375 0 L 4.359375 0 Z M 3.59375 -1.765625 L 2.53125 -4.15625 L 1.484375 -1.765625 Z M 3.59375 -1.765625 "/></g></g></g><g fill="#ffffff" fill-opacity="1"><g transform="translate(310.916422, 117.583605)"><g><path d="M 4 -2.53125 C 4.28125 -2.445312 4.503906 -2.300781 4.671875 -2.09375 C 4.835938 -1.882812 4.921875 -1.625 4.921875 -1.3125 C 4.921875 -0.894531 4.757812 -0.570312 4.4375 -0.34375 C 4.125 -0.113281 3.660156 0 3.046875 0 L 0.734375 0 L 0.734375 -4.875 L 2.90625 -4.875 C 3.46875 -4.875 3.898438 -4.757812 4.203125 -4.53125 C 4.503906 -4.3125 4.65625 -4.003906 4.65625 -3.609375 C 4.65625 -3.347656 4.59375 -3.125 4.46875 -2.9375 C 4.351562 -2.757812 4.195312 -2.625 4 -2.53125 Z M 1.421875 -4.296875 L 1.421875 -2.75 L 2.84375 -2.75 C 3.207031 -2.75 3.484375 -2.8125 3.671875 -2.9375 C 3.867188 -3.070312 3.96875 -3.269531 3.96875 -3.53125 C 3.96875 -3.78125 3.867188 -3.96875 3.671875 -4.09375 C 3.484375 -4.226562 3.207031 -4.296875 2.84375 -4.296875 Z M 3.03125 -0.5625 C 3.414062 -0.5625 3.707031 -0.625 3.90625 -0.75 C 4.113281 -0.882812 4.21875 -1.09375 4.21875 -1.375 C 4.21875 -1.914062 3.820312 -2.1875 3.03125 -2.1875 L 1.421875 -2.1875 L 1.421875 -0.5625 Z M 3.03125 -0.5625 "/></g></g></g><g fill="#ffffff" fill-opacity="1"><g transform="translate(319.658885, 117.583605)"><g><path d="M 2.921875 0.0625 C 2.429688 0.0625 1.988281 -0.046875 1.59375 -0.265625 C 1.207031 -0.484375 0.898438 -0.78125 0.671875 -1.15625 C 0.441406 -1.539062 0.328125 -1.96875 0.328125 -2.4375 C 0.328125 -2.90625 0.441406 -3.328125 0.671875 -3.703125 C 0.898438 -4.085938 1.207031 -4.382812 1.59375 -4.59375 C 1.988281 -4.8125 2.429688 -4.921875 2.921875 -4.921875 C 3.410156 -4.921875 3.851562 -4.8125 4.25 -4.59375 C 4.644531 -4.382812 4.953125 -4.085938 5.171875 -3.703125 C 5.390625 -3.328125 5.5 -2.90625 5.5 -2.4375 C 5.5 -1.957031 5.390625 -1.53125 5.171875 -1.15625 C 4.953125 -0.78125 4.644531 -0.484375 4.25 -0.265625 C 3.851562 -0.046875 3.410156 0.0625 2.921875 0.0625 Z M 2.921875 -0.5625 C 3.285156 -0.5625 3.609375 -0.640625 3.890625 -0.796875 C 4.171875 -0.960938 4.394531 -1.1875 4.5625 -1.46875 C 4.726562 -1.757812 4.8125 -2.082031 4.8125 -2.4375 C 4.8125 -2.789062 4.726562 -3.109375 4.5625 -3.390625 C 4.394531 -3.671875 4.171875 -3.890625 3.890625 -4.046875 C 3.609375 -4.210938 3.285156 -4.296875 2.921875 -4.296875 C 2.566406 -4.296875 2.242188 -4.210938 1.953125 -4.046875 C 1.660156 -3.890625 1.429688 -3.671875 1.265625 -3.390625 C 1.109375 -3.109375 1.03125 -2.789062 1.03125 -2.4375 C 1.03125 -2.082031 1.109375 -1.757812 1.265625 -1.46875 C 1.429688 -1.1875 1.660156 -0.960938 1.953125 -0.796875 C 2.242188 -0.640625 2.566406 -0.5625 2.921875 -0.5625 Z M 2.921875 -0.5625 "/></g></g></g><g fill="#ffffff" fill-opacity="1"><g transform="translate(328.978624, 117.583605)"><g><path d="M 3.984375 0 L 2.9375 -1.5 C 2.800781 -1.488281 2.695312 -1.484375 2.625 -1.484375 L 1.421875 -1.484375 L 1.421875 0 L 0.734375 0 L 0.734375 -4.875 L 2.625 -4.875 C 3.257812 -4.875 3.753906 -4.722656 4.109375 -4.421875 C 4.472656 -4.117188 4.65625 -3.703125 4.65625 -3.171875 C 4.65625 -2.796875 4.5625 -2.472656 4.375 -2.203125 C 4.195312 -1.941406 3.9375 -1.753906 3.59375 -1.640625 L 4.734375 0 Z M 2.609375 -2.078125 C 3.046875 -2.078125 3.378906 -2.171875 3.609375 -2.359375 C 3.847656 -2.546875 3.96875 -2.816406 3.96875 -3.171875 C 3.96875 -3.523438 3.847656 -3.796875 3.609375 -3.984375 C 3.378906 -4.171875 3.046875 -4.265625 2.609375 -4.265625 L 1.421875 -4.265625 L 1.421875 -2.078125 Z M 2.609375 -2.078125 "/></g></g></g><g fill="#ffffff" fill-opacity="1"><g transform="translate(337.512437, 117.583605)"><g><path d="M 3.828125 -1.21875 L 1.25 -1.21875 L 0.703125 0 L 0 0 L 2.203125 -4.875 L 2.890625 -4.875 L 5.09375 0 L 4.359375 0 Z M 3.59375 -1.765625 L 2.53125 -4.15625 L 1.484375 -1.765625 Z M 3.59375 -1.765625 "/></g></g></g><g fill="#ffffff" fill-opacity="1"><g transform="translate(346.081024, 117.583605)"><g><path d="M 1.703125 -4.265625 L 0.03125 -4.265625 L 0.03125 -4.875 L 4.046875 -4.875 L 4.046875 -4.265625 L 2.390625 -4.265625 L 2.390625 0 L 1.703125 0 Z M 1.703125 -4.265625 "/></g></g></g><g fill="#ffffff" fill-opacity="1"><g transform="translate(353.641133, 117.583605)"><g><path d="M 4.265625 -0.609375 L 4.265625 0 L 0.734375 0 L 0.734375 -4.875 L 4.171875 -4.875 L 4.171875 -4.265625 L 1.421875 -4.265625 L 1.421875 -2.765625 L 3.859375 -2.765625 L 3.859375 -2.171875 L 1.421875 -2.171875 L 1.421875 -0.609375 Z M 4.265625 -0.609375 "/></g></g></g><path stroke-linecap="butt" transform="matrix(0.75, -0.000000000000000093, 0.000000000000000093, 0.75, 141.285874, 31.140478)" fill="none" stroke-linejoin="miter" d="M -0.000956496 2.500197 L 303.582397 2.500197 " stroke="#f6e0f4" stroke-width="5" stroke-opacity="1" stroke-miterlimit="4"/><path stroke-linecap="butt" transform="matrix(0, -0.75, 0.75, 0, 365.309481, 131.773218)" fill="none" stroke-linejoin="miter" d="M -0.000293004 2.498817 L 133.270549 2.498817 " stroke="#f6e0f4" stroke-width="5" stroke-opacity="1" stroke-miterlimit="4"/><path stroke-linecap="butt" transform="matrix(-0.75, 0, 0, -0.75, 368.964971, 133.649098)" fill="none" stroke-linejoin="miter" d="M 0.000170295 2.500881 L 487.416869 2.500881 " stroke="#ffffff" stroke-width="5" stroke-opacity="1" stroke-miterlimit="4"/><path stroke-linecap="butt" transform="matrix(0.000000001309, -0.75, 0.75, 0.000000001309, 3.322944, 132.965557)" fill="none" stroke-linejoin="miter" d="M 0.000950829 2.501699 L 133.266585 2.501699 " stroke="#f6e0f4" stroke-width="5" stroke-opacity="1" stroke-miterlimit="4"/><path stroke-linecap="butt" transform="matrix(-0.75, 0.000000001309, -0.000000001309, -0.75, 82.687624, 34.890477)" fill="none" stroke-linejoin="miter" d="M 0.000165156 2.499803 L 105.708505 2.499804 " stroke="#f6e0f4" stroke-width="5" stroke-opacity="1" stroke-miterlimit="4"/><g clip-path="url(#8d1e991e0f)"><g clip-path="url(#6476d8103d)"><g clip-path="url(#c3d701d84d)"><path fill="#ffffff" d="M 134.941406 5.085938 C 98.503906 23.207031 73.082031 52.75 54.726562 88.566406 C 45.554688 68.863281 30.011719 47.289062 9.789062 71.257812 C 14.535156 71.511719 29.394531 76.113281 47.164062 119.6875 C 47.753906 120.511719 52.699219 126.710938 63.582031 119.085938 C 63.976562 118.734375 67.855469 115.21875 70.871094 111.191406 C 72.566406 108.929688 73.578125 106.667969 74.132812 103.898438 C 81.441406 67.578125 111.976562 33.488281 134.941406 5.085938 Z M 134.941406 5.085938 " fill-opacity="1" fill-rule="nonzero"/></g></g></g>
    </symbol>
</svg>