<svg xmlns="http://www.w3.org/2000/svg" xmlns:xlink="http://www.w3.org/1999/xlink" aria-hidden="true" style="position: absolute; width: 0; height: 0; overflow: hidden;" version="1.1" >
    <symbol id="full" viewBox="95 5 170 150"> 

        <defs><clipPath id="e7d7df168a"><path d="M 127 43 L 225 43 L 225 136 L 127 136 Z M 127 43 " clip-rule="nonzero"/></clipPath><clipPath id="341df0542d"><path d="M 123.074219 54.371094 L 224.515625 43.695312 L 233.621094 130.21875 L 132.179688 140.894531 Z M 123.074219 54.371094 " clip-rule="nonzero"/></clipPath><clipPath id="ddc7b4492e"><path d="M 123.074219 54.371094 L 224.515625 43.695312 L 233.621094 130.21875 L 132.179688 140.894531 Z M 123.074219 54.371094 " clip-rule="nonzero"/></clipPath></defs><path stroke-linecap="butt" transform="matrix(0.75, 0, 0, 0.75, 204.981831, 75.602544)" fill="none" stroke-linejoin="miter" d="M -0.00181639 0.998692 L 14.352351 0.998692 " stroke="#f6e0f4" stroke-width="2" stroke-opacity="1" stroke-miterlimit="4"/><path stroke-linecap="butt" transform="matrix(0, -0.75, 0.75, 0, 214.534913, 140.260846)" fill="none" stroke-linejoin="miter" d="M -0.00116368 1.000325 L 86.243634 1.000325 " stroke="#f6e0f4" stroke-width="2" stroke-opacity="1" stroke-miterlimit="4"/><path stroke-linecap="butt" transform="matrix(-0.75, 0, 0, -0.75, 215.737373, 141.015005)" fill="none" stroke-linejoin="miter" d="M -0.00121136 0.999174 L 124.165463 0.999174 " stroke="#ffffff" stroke-width="2" stroke-opacity="1" stroke-miterlimit="4"/><path stroke-linecap="butt" transform="matrix(0.000000001309, -0.75, 0.75, 0.000000001309, 122.321634, 141.032496)" fill="none" stroke-linejoin="miter" d="M 0.00166179 0.998238 L 86.246459 0.998238 " stroke="#f6e0f4" stroke-width="2" stroke-opacity="1" stroke-miterlimit="4"/><path stroke-linecap="butt" transform="matrix(-0.75, 0, 0, -0.75, 169.237376, 77.102544)" fill="none" stroke-linejoin="miter" d="M -0.00120728 1.001308 L 62.165463 1.001308 " stroke="#f6e0f4" stroke-width="2" stroke-opacity="1" stroke-miterlimit="4"/><g clip-path="url(#e7d7df168a)"><g clip-path="url(#341df0542d)"><g clip-path="url(#ddc7b4492e)"><path fill="#ffffff" d="M 224.507812 43.699219 C 196.246094 57.753906 176.527344 80.667969 162.292969 108.449219 C 155.175781 93.167969 143.125 76.433594 127.4375 95.023438 C 131.117188 95.21875 142.644531 98.789062 156.425781 132.585938 C 156.882812 133.226562 160.71875 138.035156 169.160156 132.121094 C 169.464844 131.847656 172.472656 129.121094 174.8125 126 C 176.128906 124.242188 176.914062 122.488281 177.34375 120.339844 C 183.011719 92.171875 206.699219 65.726562 224.507812 43.699219 Z M 224.507812 43.699219 " fill-opacity="1" fill-rule="nonzero"/></g></g></g>

    </symbol>
</svg>