<svg xmlns="http://www.w3.org/2000/svg" xmlns:xlink="http://www.w3.org/1999/xlink" aria-hidden="true" style="position: absolute; width: 0; height: 0; overflow: hidden;" version="1.1" >
    <symbol id="full" viewBox="95 5 180 150"> 

        <defs><g/></defs><g fill="#ffffff" fill-opacity="1"><g transform="translate(131.437544, 119.601591)"><g><path d="M 68.796875 -84.226562 L 56.40625 -68.039062 L 20.234375 -108.507812 C 18.210938 -110.53125 13.660156 -111.542969 9.359375 -111.542969 C 3.542969 -111.542969 0.757812 -110.027344 0.757812 -107.246094 C 0.757812 -105.980469 1.011719 -105.222656 1.769531 -104.460938 L 30.351562 -72.59375 L 46.289062 -54.632812 L 33.132812 -37.179688 L 6.828125 -2.277344 C 6.070312 -1.519531 5.816406 -0.757812 5.816406 0.507812 C 5.816406 3.289062 8.601562 4.804688 14.417969 4.804688 C 18.71875 4.804688 23.269531 3.792969 25.292969 1.769531 L 47.046875 -27.0625 L 57.921875 -41.480469 C 63.234375 -36.167969 69.050781 -29.59375 75.628906 -22.003906 L 93.082031 -2.53125 C 95.105469 -1.265625 99.65625 -0.253906 103.703125 -0.253906 C 108.761719 -0.253906 111.796875 -1.769531 111.796875 -4.554688 C 111.796875 -5.816406 111.796875 -6.324219 111.542969 -6.578125 L 102.945312 -15.933594 L 68.039062 -54.886719 C 76.386719 -66.523438 82.964844 -74.867188 87.261719 -80.179688 C 87.515625 -80.433594 87.515625 -80.941406 87.515625 -81.953125 C 87.515625 -84.988281 84.734375 -86.503906 79.421875 -86.503906 C 75.375 -86.503906 70.820312 -85.492188 68.796875 -84.226562 Z M 68.796875 -84.226562 "/></g></g></g><path stroke-linecap="butt" transform="matrix(0.75, 0, 0, 0.75, 100.99453, 37.832415)" fill="none" stroke-linejoin="miter" d="M 0.00208518 1.999489 L 49.080213 1.999489 " stroke="#ffffff" stroke-width="4" stroke-opacity="1" stroke-miterlimit="4"/><path stroke-linecap="butt" transform="matrix(0.75, 0.000000000000001935, -0.000000000000001935, 0.75, 232.694214, 36.332415)" fill="none" stroke-linejoin="miter" d="M 0.00146464 1.999489 L 55.079593 1.999489 " stroke="#ffffff" stroke-width="4" stroke-opacity="1" stroke-miterlimit="4"/><path stroke-linecap="butt" transform="matrix(0.0108856, 0.749921, -0.749921, 0.0108856, 273.999596, 37.816451)" fill="none" stroke-linejoin="miter" d="M 0.00216602 1.999704 L 137.797932 1.99969 " stroke="#ffffff" stroke-width="4" stroke-opacity="1" stroke-miterlimit="4"/><path stroke-linecap="butt" transform="matrix(0.0108833, 0.749921, -0.749921, 0.0108833, 102.489475, 37.793842)" fill="none" stroke-linejoin="miter" d="M 0.00103788 2.001818 L 137.828057 2.001837 " stroke="#ffffff" stroke-width="4" stroke-opacity="1" stroke-miterlimit="4"/><path stroke-linecap="butt" transform="matrix(0.75, 0, 0, 0.75, 102.49453, 139.669078)" fill="none" stroke-linejoin="miter" d="M 0.00208531 1.998521 L 228.679184 1.998521 " stroke="#ffffff" stroke-width="4" stroke-opacity="1" stroke-miterlimit="4"/></svg>
         </symbol>
</svg>