<svg xmlns="http://www.w3.org/2000/svg" xmlns:xlink="http://www.w3.org/1999/xlink" aria-hidden="true" style="position: absolute; width: 0; height: 0; overflow: hidden;" version="1.1" >
    <symbol id="full" viewBox="95 5 170 150"> 
<defs><g/></defs><g fill="#ff5757" fill-opacity="1"><g transform="translate(116.850673, 73.317462)"><g><path d="M 7.234375 -35.953125 L 0.296875 -35.953125 L 3.25 -49.234375 L 18.453125 -49.234375 L 18.890625 -50.9375 L 30.40625 -50.9375 L 27.09375 -35.953125 L 20.515625 -35.953125 L 20.515625 0 L 7.234375 0 Z M 7.234375 -35.953125 "/></g></g></g><g fill="#ff5757" fill-opacity="1"><g transform="translate(146.080941, 73.317462)"><g><path d="M 3.328125 -35.953125 L 0.375 -35.953125 L 3.328125 -49.234375 L 20.15625 -49.234375 L 20.15625 -50.9375 L 31.890625 -50.9375 L 28.5625 -35.953125 L 16.609375 -35.953125 L 16.609375 -30.046875 L 30.859375 -30.046875 L 28.5625 -19.1875 L 16.609375 -19.1875 L 16.609375 -13.28125 L 30.859375 -13.28125 L 27.90625 0 L 3.328125 0 Z M 3.328125 -35.953125 "/></g></g></g><g fill="#ff5757" fill-opacity="1"><g transform="translate(179.592411, 73.317462)"><g><path d="M 3.328125 -35.953125 L 0.375 -35.953125 L 3.328125 -49.234375 L 13.734375 -49.234375 C 15.796875 -49.234375 17.578125 -49.160156 19.078125 -49.015625 C 20.578125 -48.867188 21.914062 -48.617188 23.09375 -48.265625 C 24.28125 -47.921875 25.363281 -47.46875 26.34375 -46.90625 C 27.332031 -46.34375 28.316406 -45.617188 29.296875 -44.734375 C 34.460938 -40.148438 37.046875 -33.503906 37.046875 -24.796875 C 37.046875 -20.171875 36.304688 -16.050781 34.828125 -12.4375 C 33.359375 -8.820312 31.242188 -5.929688 28.484375 -3.765625 C 27.597656 -3.023438 26.675781 -2.421875 25.71875 -1.953125 C 24.757812 -1.484375 23.6875 -1.101562 22.5 -0.8125 C 21.320312 -0.519531 19.972656 -0.3125 18.453125 -0.1875 C 16.929688 -0.0625 15.132812 0 13.0625 0 L 3.328125 0 Z M 16.609375 -13.28125 C 18.671875 -13.382812 20.253906 -14.421875 21.359375 -16.390625 C 22.472656 -18.359375 23.03125 -21.113281 23.03125 -24.65625 C 23.03125 -28.34375 22.535156 -31.046875 21.546875 -32.765625 C 20.566406 -34.492188 18.921875 -35.554688 16.609375 -35.953125 Z M 16.609375 -13.28125 "/></g></g></g><g fill="#ffffff" fill-opacity="1"><g transform="translate(121.60545, 110.409079)"><g><path d="M 15.625 -17.578125 C 16.15625 -17.578125 16.421875 -16.609375 16.421875 -14.671875 C 16.421875 -14.085938 16.359375 -13.398438 16.234375 -12.609375 C 16.109375 -11.816406 15.878906 -11.421875 15.546875 -11.421875 L 10.25 -11.421875 L 10.25 -7.25 L 17.921875 -7.25 C 18.390625 -7.25 18.707031 -6.640625 18.875 -5.421875 C 18.957031 -4.890625 19 -4.320312 19 -3.71875 C 19 -3.125 18.914062 -2.351562 18.75 -1.40625 C 18.582031 -0.46875 18.304688 0 17.921875 0 L 3.671875 0 C 2.609375 0 2.078125 -0.429688 2.078125 -1.296875 L 2.078125 -28.09375 C 2.078125 -28.8125 2.398438 -29.171875 3.046875 -29.171875 L 17.953125 -29.171875 C 18.535156 -29.171875 18.828125 -27.941406 18.828125 -25.484375 C 18.828125 -23.023438 18.535156 -21.796875 17.953125 -21.796875 L 10.25 -21.796875 L 10.25 -17.578125 Z M 15.625 -17.578125 "/></g></g></g><g fill="#ffffff" fill-opacity="1"><g transform="translate(142.145755, 110.409079)"><g><path d="M 0.25 -20.71875 C 0.164062 -20.9375 1.460938 -21.046875 4.140625 -21.046875 C 6.828125 -21.046875 8.171875 -20.976562 8.171875 -20.84375 L 11.171875 -6.671875 L 13.421875 -20.625 C 13.503906 -20.875 14.878906 -21 17.546875 -21 C 20.242188 -21 21.550781 -20.890625 21.46875 -20.671875 L 15.578125 -0.296875 C 15.390625 -0.015625 13.738281 0.125 10.625 0.125 C 7.507812 0.125 5.84375 -0.0820312 5.625 -0.5 Z M 0.25 -20.71875 "/></g></g></g><g fill="#ffffff" fill-opacity="1"><g transform="translate(163.852645, 110.409079)"><g><path d="M 17.625 -1.125 C 15.875 -0.09375 13.625 0.421875 10.875 0.421875 C 8.125 0.421875 5.800781 -0.515625 3.90625 -2.390625 C 2.019531 -4.265625 1.078125 -6.863281 1.078125 -10.1875 C 1.078125 -13.507812 1.988281 -16.179688 3.8125 -18.203125 C 5.632812 -20.234375 7.929688 -21.25 10.703125 -21.25 C 13.484375 -21.25 15.628906 -20.539062 17.140625 -19.125 C 18.660156 -17.707031 19.421875 -15.984375 19.421875 -13.953125 C 19.421875 -9.453125 16.835938 -7.203125 11.671875 -7.203125 L 8.796875 -7.203125 C 8.796875 -6.367188 9.023438 -5.789062 9.484375 -5.46875 C 9.941406 -5.15625 10.613281 -5 11.5 -5 C 13.445312 -5 15.296875 -5.441406 17.046875 -6.328125 C 17.066406 -6.359375 17.191406 -6.164062 17.421875 -5.75 C 18.085938 -4.550781 18.421875 -3.539062 18.421875 -2.71875 C 18.421875 -1.90625 18.15625 -1.375 17.625 -1.125 Z M 12.421875 -13.171875 C 12.421875 -14.335938 11.847656 -14.921875 10.703125 -14.921875 C 10.179688 -14.921875 9.734375 -14.757812 9.359375 -14.4375 C 8.984375 -14.113281 8.796875 -13.648438 8.796875 -13.046875 L 8.796875 -11.75 L 11.046875 -11.75 C 11.960938 -11.75 12.421875 -12.222656 12.421875 -13.171875 Z M 12.421875 -13.171875 "/></g></g></g><g fill="#ffffff" fill-opacity="1"><g transform="translate(184.101306, 110.409079)"><g><path d="M 10.578125 -0.25 C 10.578125 -0.0507812 9.578125 0.046875 7.578125 0.046875 C 4.804688 -0.0351562 3.421875 -0.191406 3.421875 -0.421875 L 3.421875 -13.921875 L 2.328125 -13.921875 C 1.609375 -13.921875 1.140625 -14.53125 0.921875 -15.75 C 0.859375 -16.113281 0.828125 -16.472656 0.828125 -16.828125 C 0.828125 -17.691406 0.992188 -18.554688 1.328125 -19.421875 C 1.828125 -20.640625 2.601562 -21.25 3.65625 -21.25 C 4.71875 -21.25 5.664062 -21 6.5 -20.5 C 7.332031 -20 7.890625 -19.5 8.171875 -19 C 9.921875 -20.5 12.003906 -21.25 14.421875 -21.25 C 16.835938 -21.25 18.585938 -20.59375 19.671875 -19.28125 C 20.753906 -17.976562 21.296875 -15.84375 21.296875 -12.875 L 21.296875 -0.375 C 21.296875 -0.0390625 20.109375 0.125 17.734375 0.125 C 15.359375 0.125 14.171875 -0.0390625 14.171875 -0.375 L 14.171875 -12.421875 C 14.171875 -13.804688 13.679688 -14.5 12.703125 -14.5 C 12.429688 -14.5 12.046875 -14.378906 11.546875 -14.140625 C 11.046875 -13.910156 10.722656 -13.738281 10.578125 -13.625 Z M 10.578125 -0.25 "/></g></g></g><g fill="#ffffff" fill-opacity="1"><g transform="translate(207.058121, 110.409079)"><g><path d="M 11.453125 -0.25 C 11.453125 0.0820312 10.285156 0.25 7.953125 0.25 C 5.179688 0.132812 3.796875 -0.046875 3.796875 -0.296875 L 3.796875 -15.046875 L 1.671875 -15.046875 C 1.109375 -15.046875 0.828125 -16.003906 0.828125 -17.921875 C 0.828125 -18.421875 0.875 -19.03125 0.96875 -19.75 C 1.070312 -20.476562 1.273438 -20.84375 1.578125 -20.84375 L 3.796875 -20.84375 L 3.796875 -24.5 C 3.796875 -25.0625 4.96875 -25.34375 7.3125 -25.34375 C 9.65625 -25.34375 10.828125 -25.117188 10.828125 -24.671875 L 10.828125 -22 L 10.875 -20.84375 L 14.421875 -20.84375 C 14.890625 -20.84375 15.125 -19.867188 15.125 -17.921875 C 15.125 -15.972656 14.890625 -15 14.421875 -15 L 11.453125 -15 Z M 11.453125 -0.25 "/></g></g></g><g fill="#ffffff" fill-opacity="1"><g transform="translate(222.390435, 110.409079)"><g><path d="M 2.75 -7.5 C 5 -6.132812 6.773438 -5.453125 8.078125 -5.453125 C 8.910156 -5.453125 9.328125 -5.742188 9.328125 -6.328125 C 9.328125 -6.742188 8.609375 -7.285156 7.171875 -7.953125 C 3.691406 -9.367188 1.953125 -11.691406 1.953125 -14.921875 C 1.953125 -16.972656 2.703125 -18.539062 4.203125 -19.625 C 5.703125 -20.707031 7.5 -21.25 9.59375 -21.25 C 11.695312 -21.25 13.476562 -21.023438 14.9375 -20.578125 C 16.394531 -20.140625 17.125 -19.554688 17.125 -18.828125 C 17.125 -18.222656 16.820312 -17.421875 16.21875 -16.421875 C 15.625 -15.421875 15.21875 -14.878906 15 -14.796875 C 13.800781 -15.460938 12.507812 -15.796875 11.125 -15.796875 C 10.375 -15.796875 10 -15.53125 10 -15 C 10 -14.664062 10.144531 -14.378906 10.4375 -14.140625 C 10.726562 -13.910156 11.257812 -13.617188 12.03125 -13.265625 C 12.8125 -12.921875 13.457031 -12.609375 13.96875 -12.328125 C 14.488281 -12.054688 15.066406 -11.671875 15.703125 -11.171875 C 17.035156 -10.109375 17.703125 -8.734375 17.703125 -7.046875 C 17.703125 -4.816406 16.96875 -3.015625 15.5 -1.640625 C 14.03125 -0.265625 11.804688 0.421875 8.828125 0.421875 C 6.859375 0.421875 5.066406 0.0859375 3.453125 -0.578125 C 1.847656 -1.242188 1.046875 -2.160156 1.046875 -3.328125 C 1.046875 -4.109375 1.234375 -4.925781 1.609375 -5.78125 C 1.984375 -6.644531 2.363281 -7.21875 2.75 -7.5 Z M 2.75 -7.5 "/></g></g></g><g fill="#ffffff" fill-opacity="1"><g transform="translate(121.60545, 140.660926)"><g><path d="M 20.75 -0.203125 C 20.75 -0.015625 19.5625 0.078125 17.1875 0.078125 C 14.8125 0.078125 13.625 -0.046875 13.625 -0.296875 L 13.625 -12.421875 C 13.625 -13.804688 13.164062 -14.5 12.25 -14.5 C 11.78125 -14.5 11.15625 -14.191406 10.375 -13.578125 L 10.375 -0.25 C 10.375 0.03125 9.1875 0.171875 6.8125 0.171875 C 4.4375 0.171875 3.25 0.015625 3.25 -0.296875 L 3.25 -13.921875 L 2.203125 -13.921875 C 1.285156 -13.921875 0.828125 -14.878906 0.828125 -16.796875 C 0.828125 -17.648438 0.992188 -18.523438 1.328125 -19.421875 C 1.773438 -20.640625 2.5 -21.25 3.5 -21.25 C 4.5 -21.25 5.460938 -20.984375 6.390625 -20.453125 C 7.328125 -19.929688 7.890625 -19.429688 8.078125 -18.953125 C 9.804688 -20.484375 11.71875 -21.25 13.8125 -21.25 C 15.90625 -21.25 17.59375 -20.597656 18.875 -19.296875 C 20.375 -20.597656 22.179688 -21.25 24.296875 -21.25 C 28.878906 -21.25 31.171875 -18.457031 31.171875 -12.875 L 31.171875 -0.203125 C 31.171875 -0.015625 29.984375 0.078125 27.609375 0.078125 C 25.234375 0.078125 24.046875 -0.046875 24.046875 -0.296875 L 24.046875 -12.421875 C 24.046875 -13.804688 23.585938 -14.5 22.671875 -14.5 C 22.171875 -14.5 21.53125 -14.191406 20.75 -13.578125 Z M 20.75 -0.203125 "/></g></g></g><g fill="#ffffff" fill-opacity="1"><g transform="translate(154.436609, 140.660926)"><g><path d="M 4.5 -15.125 C 3.71875 -16.507812 3.328125 -17.640625 3.328125 -18.515625 C 3.328125 -19.390625 3.566406 -19.953125 4.046875 -20.203125 C 5.628906 -20.898438 7.800781 -21.25 10.5625 -21.25 C 13.320312 -21.25 15.269531 -20.601562 16.40625 -19.3125 C 17.550781 -18.019531 18.125 -16.109375 18.125 -13.578125 L 18.125 -7 L 19.546875 -7 C 20.015625 -7 20.378906 -6.71875 20.640625 -6.15625 C 20.910156 -5.601562 21.046875 -4.84375 21.046875 -3.875 C 21.046875 -2.90625 20.800781 -1.945312 20.3125 -1 C 19.820312 -0.0507812 19.160156 0.421875 18.328125 0.421875 C 16.828125 0.421875 15.617188 0.015625 14.703125 -0.796875 C 14.285156 -1.128906 13.96875 -1.53125 13.75 -2 C 12.46875 -0.382812 10.484375 0.421875 7.796875 0.421875 C 5.765625 0.421875 4.050781 -0.300781 2.65625 -1.75 C 1.269531 -3.195312 0.578125 -4.90625 0.578125 -6.875 C 0.578125 -11.40625 3.285156 -13.671875 8.703125 -13.671875 L 11 -13.671875 L 11 -14.078125 C 11 -14.804688 10.878906 -15.273438 10.640625 -15.484375 C 10.410156 -15.691406 9.863281 -15.796875 9 -15.796875 C 7.945312 -15.796875 6.445312 -15.570312 4.5 -15.125 Z M 7.828125 -7.453125 C 7.828125 -6.847656 7.992188 -6.382812 8.328125 -6.0625 C 8.660156 -5.738281 9.082031 -5.578125 9.59375 -5.578125 C 10.113281 -5.578125 10.582031 -5.785156 11 -6.203125 L 11 -9.421875 L 9.828125 -9.421875 C 8.492188 -9.421875 7.828125 -8.765625 7.828125 -7.453125 Z M 7.828125 -7.453125 "/></g></g></g><g fill="#ffffff" fill-opacity="1"><g transform="translate(175.976846, 140.660926)"><g><path d="M 10.578125 -0.25 C 10.578125 -0.0507812 9.578125 0.046875 7.578125 0.046875 C 4.804688 -0.0351562 3.421875 -0.191406 3.421875 -0.421875 L 3.421875 -13.921875 L 2.328125 -13.921875 C 1.609375 -13.921875 1.140625 -14.53125 0.921875 -15.75 C 0.859375 -16.113281 0.828125 -16.472656 0.828125 -16.828125 C 0.828125 -17.691406 0.992188 -18.554688 1.328125 -19.421875 C 1.828125 -20.640625 2.601562 -21.25 3.65625 -21.25 C 4.71875 -21.25 5.664062 -21 6.5 -20.5 C 7.332031 -20 7.890625 -19.5 8.171875 -19 C 9.921875 -20.5 12.003906 -21.25 14.421875 -21.25 C 16.835938 -21.25 18.585938 -20.59375 19.671875 -19.28125 C 20.753906 -17.976562 21.296875 -15.84375 21.296875 -12.875 L 21.296875 -0.375 C 21.296875 -0.0390625 20.109375 0.125 17.734375 0.125 C 15.359375 0.125 14.171875 -0.0390625 14.171875 -0.375 L 14.171875 -12.421875 C 14.171875 -13.804688 13.679688 -14.5 12.703125 -14.5 C 12.429688 -14.5 12.046875 -14.378906 11.546875 -14.140625 C 11.046875 -13.910156 10.722656 -13.738281 10.578125 -13.625 Z M 10.578125 -0.25 "/></g></g></g><g fill="#ffffff" fill-opacity="1"><g transform="translate(198.933661, 140.660926)"><g><path d="M 4.5 -15.125 C 3.71875 -16.507812 3.328125 -17.640625 3.328125 -18.515625 C 3.328125 -19.390625 3.566406 -19.953125 4.046875 -20.203125 C 5.628906 -20.898438 7.800781 -21.25 10.5625 -21.25 C 13.320312 -21.25 15.269531 -20.601562 16.40625 -19.3125 C 17.550781 -18.019531 18.125 -16.109375 18.125 -13.578125 L 18.125 -7 L 19.546875 -7 C 20.015625 -7 20.378906 -6.71875 20.640625 -6.15625 C 20.910156 -5.601562 21.046875 -4.84375 21.046875 -3.875 C 21.046875 -2.90625 20.800781 -1.945312 20.3125 -1 C 19.820312 -0.0507812 19.160156 0.421875 18.328125 0.421875 C 16.828125 0.421875 15.617188 0.015625 14.703125 -0.796875 C 14.285156 -1.128906 13.96875 -1.53125 13.75 -2 C 12.46875 -0.382812 10.484375 0.421875 7.796875 0.421875 C 5.765625 0.421875 4.050781 -0.300781 2.65625 -1.75 C 1.269531 -3.195312 0.578125 -4.90625 0.578125 -6.875 C 0.578125 -11.40625 3.285156 -13.671875 8.703125 -13.671875 L 11 -13.671875 L 11 -14.078125 C 11 -14.804688 10.878906 -15.273438 10.640625 -15.484375 C 10.410156 -15.691406 9.863281 -15.796875 9 -15.796875 C 7.945312 -15.796875 6.445312 -15.570312 4.5 -15.125 Z M 7.828125 -7.453125 C 7.828125 -6.847656 7.992188 -6.382812 8.328125 -6.0625 C 8.660156 -5.738281 9.082031 -5.578125 9.59375 -5.578125 C 10.113281 -5.578125 10.582031 -5.785156 11 -6.203125 L 11 -9.421875 L 9.828125 -9.421875 C 8.492188 -9.421875 7.828125 -8.765625 7.828125 -7.453125 Z M 7.828125 -7.453125 "/></g></g></g><g fill="#ffffff" fill-opacity="1"><g transform="translate(220.473897, 140.660926)"><g><path d="M 9.546875 0 C 6.847656 0 4.757812 -0.863281 3.28125 -2.59375 C 1.8125 -4.332031 1.078125 -6.90625 1.078125 -10.3125 C 1.078125 -13.71875 2.039062 -16.382812 3.96875 -18.3125 C 5.90625 -20.25 8.476562 -21.21875 11.6875 -21.21875 C 14.894531 -21.21875 17.539062 -20.503906 19.625 -19.078125 L 19.625 1.671875 C 19.625 3.722656 18.789062 5.296875 17.125 6.390625 C 15.457031 7.492188 13.316406 8.046875 10.703125 8.046875 C 8.097656 8.046875 5.765625 7.710938 3.703125 7.046875 C 3.429688 6.378906 3.296875 5.78125 3.296875 5.25 C 3.296875 3.46875 3.585938 2.160156 4.171875 1.328125 C 6.023438 2.140625 8.007812 2.546875 10.125 2.546875 C 11.65625 2.546875 12.421875 2.003906 12.421875 0.921875 L 12.421875 -0.328125 C 11.222656 -0.109375 10.265625 0 9.546875 0 Z M 11.453125 -14.421875 C 9.597656 -14.421875 8.671875 -13.015625 8.671875 -10.203125 C 8.671875 -8.453125 9.03125 -7.316406 9.75 -6.796875 C 10.21875 -6.429688 10.6875 -6.25 11.15625 -6.25 C 11.632812 -6.25 12.054688 -6.289062 12.421875 -6.375 L 12.421875 -14.296875 C 12.085938 -14.378906 11.765625 -14.421875 11.453125 -14.421875 Z M 11.453125 -14.421875 "/></g></g></g><g fill="#ffffff" fill-opacity="1"><g transform="translate(241.972471, 140.660926)"><g><path d="M 17.625 -1.125 C 15.875 -0.09375 13.625 0.421875 10.875 0.421875 C 8.125 0.421875 5.800781 -0.515625 3.90625 -2.390625 C 2.019531 -4.265625 1.078125 -6.863281 1.078125 -10.1875 C 1.078125 -13.507812 1.988281 -16.179688 3.8125 -18.203125 C 5.632812 -20.234375 7.929688 -21.25 10.703125 -21.25 C 13.484375 -21.25 15.628906 -20.539062 17.140625 -19.125 C 18.660156 -17.707031 19.421875 -15.984375 19.421875 -13.953125 C 19.421875 -9.453125 16.835938 -7.203125 11.671875 -7.203125 L 8.796875 -7.203125 C 8.796875 -6.367188 9.023438 -5.789062 9.484375 -5.46875 C 9.941406 -5.15625 10.613281 -5 11.5 -5 C 13.445312 -5 15.296875 -5.441406 17.046875 -6.328125 C 17.066406 -6.359375 17.191406 -6.164062 17.421875 -5.75 C 18.085938 -4.550781 18.421875 -3.539062 18.421875 -2.71875 C 18.421875 -1.90625 18.15625 -1.375 17.625 -1.125 Z M 12.421875 -13.171875 C 12.421875 -14.335938 11.847656 -14.921875 10.703125 -14.921875 C 10.179688 -14.921875 9.734375 -14.757812 9.359375 -14.4375 C 8.984375 -14.113281 8.796875 -13.648438 8.796875 -13.046875 L 8.796875 -11.75 L 11.046875 -11.75 C 11.960938 -11.75 12.421875 -12.222656 12.421875 -13.171875 Z M 12.421875 -13.171875 "/></g></g></g><g fill="#ffffff" fill-opacity="1"><g transform="translate(262.221132, 140.660926)"><g><path d="M 20.75 -0.203125 C 20.75 -0.015625 19.5625 0.078125 17.1875 0.078125 C 14.8125 0.078125 13.625 -0.046875 13.625 -0.296875 L 13.625 -12.421875 C 13.625 -13.804688 13.164062 -14.5 12.25 -14.5 C 11.78125 -14.5 11.15625 -14.191406 10.375 -13.578125 L 10.375 -0.25 C 10.375 0.03125 9.1875 0.171875 6.8125 0.171875 C 4.4375 0.171875 3.25 0.015625 3.25 -0.296875 L 3.25 -13.921875 L 2.203125 -13.921875 C 1.285156 -13.921875 0.828125 -14.878906 0.828125 -16.796875 C 0.828125 -17.648438 0.992188 -18.523438 1.328125 -19.421875 C 1.773438 -20.640625 2.5 -21.25 3.5 -21.25 C 4.5 -21.25 5.460938 -20.984375 6.390625 -20.453125 C 7.328125 -19.929688 7.890625 -19.429688 8.078125 -18.953125 C 9.804688 -20.484375 11.71875 -21.25 13.8125 -21.25 C 15.90625 -21.25 17.59375 -20.597656 18.875 -19.296875 C 20.375 -20.597656 22.179688 -21.25 24.296875 -21.25 C 28.878906 -21.25 31.171875 -18.457031 31.171875 -12.875 L 31.171875 -0.203125 C 31.171875 -0.015625 29.984375 0.078125 27.609375 0.078125 C 25.234375 0.078125 24.046875 -0.046875 24.046875 -0.296875 L 24.046875 -12.421875 C 24.046875 -13.804688 23.585938 -14.5 22.671875 -14.5 C 22.171875 -14.5 21.53125 -14.191406 20.75 -13.578125 Z M 20.75 -0.203125 "/></g></g></g><g fill="#ffffff" fill-opacity="1"><g transform="translate(295.052292, 140.660926)"><g><path d="M 17.625 -1.125 C 15.875 -0.09375 13.625 0.421875 10.875 0.421875 C 8.125 0.421875 5.800781 -0.515625 3.90625 -2.390625 C 2.019531 -4.265625 1.078125 -6.863281 1.078125 -10.1875 C 1.078125 -13.507812 1.988281 -16.179688 3.8125 -18.203125 C 5.632812 -20.234375 7.929688 -21.25 10.703125 -21.25 C 13.484375 -21.25 15.628906 -20.539062 17.140625 -19.125 C 18.660156 -17.707031 19.421875 -15.984375 19.421875 -13.953125 C 19.421875 -9.453125 16.835938 -7.203125 11.671875 -7.203125 L 8.796875 -7.203125 C 8.796875 -6.367188 9.023438 -5.789062 9.484375 -5.46875 C 9.941406 -5.15625 10.613281 -5 11.5 -5 C 13.445312 -5 15.296875 -5.441406 17.046875 -6.328125 C 17.066406 -6.359375 17.191406 -6.164062 17.421875 -5.75 C 18.085938 -4.550781 18.421875 -3.539062 18.421875 -2.71875 C 18.421875 -1.90625 18.15625 -1.375 17.625 -1.125 Z M 12.421875 -13.171875 C 12.421875 -14.335938 11.847656 -14.921875 10.703125 -14.921875 C 10.179688 -14.921875 9.734375 -14.757812 9.359375 -14.4375 C 8.984375 -14.113281 8.796875 -13.648438 8.796875 -13.046875 L 8.796875 -11.75 L 11.046875 -11.75 C 11.960938 -11.75 12.421875 -12.222656 12.421875 -13.171875 Z M 12.421875 -13.171875 "/></g></g></g><g fill="#ffffff" fill-opacity="1"><g transform="translate(315.300953, 140.660926)"><g><path d="M 10.578125 -0.25 C 10.578125 -0.0507812 9.578125 0.046875 7.578125 0.046875 C 4.804688 -0.0351562 3.421875 -0.191406 3.421875 -0.421875 L 3.421875 -13.921875 L 2.328125 -13.921875 C 1.609375 -13.921875 1.140625 -14.53125 0.921875 -15.75 C 0.859375 -16.113281 0.828125 -16.472656 0.828125 -16.828125 C 0.828125 -17.691406 0.992188 -18.554688 1.328125 -19.421875 C 1.828125 -20.640625 2.601562 -21.25 3.65625 -21.25 C 4.71875 -21.25 5.664062 -21 6.5 -20.5 C 7.332031 -20 7.890625 -19.5 8.171875 -19 C 9.921875 -20.5 12.003906 -21.25 14.421875 -21.25 C 16.835938 -21.25 18.585938 -20.59375 19.671875 -19.28125 C 20.753906 -17.976562 21.296875 -15.84375 21.296875 -12.875 L 21.296875 -0.375 C 21.296875 -0.0390625 20.109375 0.125 17.734375 0.125 C 15.359375 0.125 14.171875 -0.0390625 14.171875 -0.375 L 14.171875 -12.421875 C 14.171875 -13.804688 13.679688 -14.5 12.703125 -14.5 C 12.429688 -14.5 12.046875 -14.378906 11.546875 -14.140625 C 11.046875 -13.910156 10.722656 -13.738281 10.578125 -13.625 Z M 10.578125 -0.25 "/></g></g></g><g fill="#ffffff" fill-opacity="1"><g transform="translate(338.257768, 140.660926)"><g><path d="M 11.453125 -0.25 C 11.453125 0.0820312 10.285156 0.25 7.953125 0.25 C 5.179688 0.132812 3.796875 -0.046875 3.796875 -0.296875 L 3.796875 -15.046875 L 1.671875 -15.046875 C 1.109375 -15.046875 0.828125 -16.003906 0.828125 -17.921875 C 0.828125 -18.421875 0.875 -19.03125 0.96875 -19.75 C 1.070312 -20.476562 1.273438 -20.84375 1.578125 -20.84375 L 3.796875 -20.84375 L 3.796875 -24.5 C 3.796875 -25.0625 4.96875 -25.34375 7.3125 -25.34375 C 9.65625 -25.34375 10.828125 -25.117188 10.828125 -24.671875 L 10.828125 -22 L 10.875 -20.84375 L 14.421875 -20.84375 C 14.890625 -20.84375 15.125 -19.867188 15.125 -17.921875 C 15.125 -15.972656 14.890625 -15 14.421875 -15 L 11.453125 -15 Z M 11.453125 -0.25 "/></g></g></g><g fill="#ffffff" fill-opacity="1"><g transform="translate(353.590069, 140.660926)"><g><path d="M 8.703125 0.125 C 8.703125 0.320312 7.390625 0.421875 4.765625 0.421875 C 2.140625 0.421875 0.828125 0.335938 0.828125 0.171875 L 0.828125 -7.328125 C 0.828125 -7.578125 2.140625 -7.703125 4.765625 -7.703125 C 7.390625 -7.703125 8.703125 -7.632812 8.703125 -7.5 Z M 8.703125 0.125 "/></g></g></g><g fill="#ffffff" fill-opacity="1"><g transform="translate(5.991117, 143.073147)"><g><path d="M 68.796875 -84.226562 L 56.40625 -68.039062 L 20.234375 -108.507812 C 18.210938 -110.53125 13.660156 -111.542969 9.359375 -111.542969 C 3.542969 -111.542969 0.757812 -110.027344 0.757812 -107.246094 C 0.757812 -105.980469 1.011719 -105.222656 1.769531 -104.460938 L 30.351562 -72.59375 L 46.289062 -54.632812 L 33.132812 -37.179688 L 6.828125 -2.277344 C 6.070312 -1.519531 5.816406 -0.757812 5.816406 0.507812 C 5.816406 3.289062 8.601562 4.804688 14.417969 4.804688 C 18.71875 4.804688 23.269531 3.792969 25.292969 1.769531 L 47.046875 -27.0625 L 57.921875 -41.480469 C 63.234375 -36.167969 69.050781 -29.59375 75.628906 -22.003906 L 93.082031 -2.53125 C 95.105469 -1.265625 99.65625 -0.253906 103.703125 -0.253906 C 108.761719 -0.253906 111.796875 -1.769531 111.796875 -4.554688 C 111.796875 -5.816406 111.796875 -6.324219 111.542969 -6.578125 L 102.945312 -15.933594 L 68.039062 -54.886719 C 76.386719 -66.523438 82.964844 -74.867188 87.261719 -80.179688 C 87.515625 -80.433594 87.515625 -80.941406 87.515625 -81.953125 C 87.515625 -84.988281 84.734375 -86.503906 79.421875 -86.503906 C 75.375 -86.503906 70.820312 -85.492188 68.796875 -84.226562 Z M 68.796875 -84.226562 "/></g></g></g>
<symbol>
</svg>